<?xml version="1.0" encoding="UTF-8" standalone="no"?><!DOCTYPE svg PUBLIC "-//W3C//DTD SVG 1.1//EN" "http://www.w3.org/Graphics/SVG/1.1/DTD/svg11.dtd"><svg width="100%" height="100%" viewBox="0 0 836 838" version="1.1" xmlns="http://www.w3.org/2000/svg" xmlns:xlink="http://www.w3.org/1999/xlink" xml:space="preserve" xmlns:serif="http://www.serif.com/" style="fill-rule:evenodd;clip-rule:evenodd;stroke-linecap:round;stroke-linejoin:round;stroke-miterlimit:1.5;"><g><path d="M833.333,210.417c0,-114.983 -93.351,-208.334 -208.333,-208.334l-416.667,0c-114.982,0 -208.333,93.351 -208.333,208.334l0,416.666c0,114.983 93.351,208.334 208.333,208.334l416.667,-0c114.982,-0 208.333,-93.351 208.333,-208.334l0,-416.666Z" style="fill:#0254a6;"/><path d="M833.333,204.929c0,-111.954 -90.892,-202.846 -202.845,-202.846c-111.954,0 -202.846,90.892 -202.846,202.846l-0,427.642c-0,111.954 90.892,202.846 202.846,202.846c111.953,-0 202.845,-90.892 202.845,-202.846l0,-427.642Z" style="fill:#8dc53e;stroke:#8dc53e;stroke-width:4.17px;"/><rect x="427.642" y="2.083" width="177.075" height="833.333" style="fill:#8dc53e;stroke:#8dc53e;stroke-width:4.17px;"/><path d="M109.8,574.703l-59.8,-311.906l51.769,-0l37.759,214.249l45.79,-214.249l60.141,-0l43.91,217.866l38.442,-217.866l50.916,-0l-60.825,311.906l-53.649,0l-49.89,-233.185l-49.719,233.185l-54.844,0Z" style="fill:#fff;fill-rule:nonzero;"/><path d="M517.231,574.703l0,-311.906l122.826,-0c30.887,-0 53.329,2.801 67.327,8.404c13.998,5.602 25.203,15.567 33.614,29.892c8.412,14.326 12.618,30.709 12.618,49.148c0,23.404 -6.375,42.73 -19.124,57.977c-12.749,15.248 -31.807,24.858 -57.174,28.829c12.618,7.943 23.034,16.667 31.249,26.17c8.215,9.503 19.288,26.382 33.22,50.637l35.29,60.849l-69.792,0l-42.19,-67.87c-14.983,-24.255 -25.235,-39.538 -30.756,-45.85c-5.52,-6.312 -11.369,-10.638 -17.546,-12.978c-6.177,-2.341 -15.969,-3.511 -29.376,-3.511l-11.829,0l0,130.209l-58.357,0Zm58.357,-179.995l43.176,0c27.996,0 45.477,-1.277 52.443,-3.83c6.966,-2.553 12.42,-6.95 16.363,-13.191c3.943,-6.241 5.915,-14.042 5.915,-23.403c-0,-10.497 -2.596,-18.972 -7.788,-25.425c-5.191,-6.454 -12.519,-10.532 -21.982,-12.234c-4.732,-0.709 -18.927,-1.064 -42.585,-1.064l-45.542,0l0,79.147Z" style="fill:#fff;fill-rule:nonzero;"/></g></svg>